<svg xmlns="http://www.w3.org/2000/svg" viewBox="0 0 49.93 53"><defs><style>.cls-1{fill:#edf7fa;}</style></defs><g id="Layer_2" data-name="Layer 2"><g id="Layer_1-2" data-name="Layer 1"><path class="cls-1" d="M5.85,27.84l10.79,24.4a1.28,1.28,0,0,0,1.89.54L28,46.41a1.29,1.29,0,0,0,.13-2l-20.24-18A1.29,1.29,0,0,0,5.85,27.84Z"/><path class="cls-1" d="M27.22,12.88,38,37.27a1.28,1.28,0,0,0,1.89.55l9.46-6.38a1.28,1.28,0,0,0,.13-2l-20.24-18A1.28,1.28,0,0,0,27.22,12.88Z"/><path class="cls-1" d="M22.71,25.16,11.92.77A1.28,1.28,0,0,0,10,.22L.57,6.59a1.29,1.29,0,0,0-.14,2l20.25,18A1.29,1.29,0,0,0,22.71,25.16Z"/></g></g></svg>