<svg xmlns="http://www.w3.org/2000/svg" viewBox="0 0 94.96 105.04"><defs><style>.cls-1{fill:#f9f0dc;stroke:#f9f0dc;stroke-miterlimit:10;}</style></defs><g id="Layer_2" data-name="Layer 2"><g id="Layer_1-2" data-name="Layer 1"><path class="cls-1" d="M10,50.12l22.77,53.63a1.28,1.28,0,0,0,1.92.55l19.95-14a1.29,1.29,0,0,0,.14-2L12.08,48.68A1.28,1.28,0,0,0,10,50.12Z"/><path class="cls-1" d="M94.62,59.24,51.9,19.62a1.29,1.29,0,0,0-2.06,1.45L72.61,74.7a1.29,1.29,0,0,0,1.92.55l20-14"/><path class="cls-1" d="M45.69,54.92,22.92,1.28A1.29,1.29,0,0,0,21,.73l-19.95,14a1.28,1.28,0,0,0-.14,2L43.63,56.36A1.29,1.29,0,0,0,45.69,54.92Z"/></g></g></svg>