<svg xmlns="http://www.w3.org/2000/svg" viewBox="0 0 100.13 245.98"><defs><style>.cls-1{fill:#fad9b5;}</style></defs><g id="Layer_2" data-name="Layer 2"><g id="Layer_1-2" data-name="Layer 1"><path class="cls-1" d="M15.13,72.48,0,1.93A1.59,1.59,0,0,1,1.59,0h30.2a1.6,1.6,0,0,1,1.56,1.93L18.25,72.48A1.6,1.6,0,0,1,15.13,72.48Z"/><path class="cls-1" d="M81.88,72.62,66.78,2.06A1.59,1.59,0,0,1,68.34.14h30.2a1.58,1.58,0,0,1,1.55,1.92L85,72.62A1.6,1.6,0,0,1,81.88,72.62Z"/><path class="cls-1" d="M48.51,121.8,33.41,51.25A1.6,1.6,0,0,1,35,49.32H65.16a1.6,1.6,0,0,1,1.56,1.93L51.62,121.8A1.59,1.59,0,0,1,48.51,121.8Z"/><path class="cls-1" d="M15.13,195.4,0,124.84a1.59,1.59,0,0,1,1.55-1.93h30.2a1.6,1.6,0,0,1,1.56,1.93L18.25,195.4A1.6,1.6,0,0,1,15.13,195.4Z"/><path class="cls-1" d="M81.88,195.53,66.78,125a1.59,1.59,0,0,1,1.56-1.92h30.2a1.58,1.58,0,0,1,1.55,1.92L85,195.53A1.6,1.6,0,0,1,81.88,195.53Z"/><path class="cls-1" d="M48.51,244.72l-15.1-70.56A1.6,1.6,0,0,1,35,172.23H65.16a1.6,1.6,0,0,1,1.56,1.93l-15.1,70.56A1.59,1.59,0,0,1,48.51,244.72Z"/></g></g></svg>