<svg xmlns="http://www.w3.org/2000/svg" viewBox="0 0 48.89 51.92"><defs><style>.cls-1{fill:#fad9b5;}</style></defs><g id="Layer_2" data-name="Layer 2"><g id="Layer_1-2" data-name="Layer 1"><path class="cls-1" d="M6.55,29.81l9.32,21a1.88,1.88,0,0,0,2.76.79l8.17-5.48a1.87,1.87,0,0,0,.2-3L9.51,27.65A1.87,1.87,0,0,0,6.55,29.81Z"/><path class="cls-1" d="M27.8,15l9.33,21a1.87,1.87,0,0,0,2.76.8l8.17-5.49a1.87,1.87,0,0,0,.19-3L30.76,12.82A1.88,1.88,0,0,0,27.8,15Z"/><path class="cls-1" d="M21.08,22.11l-9.32-21A1.88,1.88,0,0,0,9,.32L.83,5.8a1.88,1.88,0,0,0-.2,3l17.49,15.5A1.87,1.87,0,0,0,21.08,22.11Z"/></g></g></svg>