<svg xmlns="http://www.w3.org/2000/svg" viewBox="0 0 167.42 19.76"><defs><style>.cls-1{fill:#0c5177;}.cls-2{fill:#d46a43;}</style></defs><g id="Layer_2" data-name="Layer 2"><g id="Layer_3" data-name="Layer 3"><path class="cls-1" d="M33.91,19.54H29.4V11.37H21.55v8.17H17V.21h4.51V8.29H29.4V.21h4.51Z"/><path class="cls-1" d="M57.5,9.87a10.4,10.4,0,0,1-.72,3.9A9.24,9.24,0,0,1,51.58,19a11.49,11.49,0,0,1-8.22,0,9.2,9.2,0,0,1-5.22-5.23,10.4,10.4,0,0,1-.72-3.9A10.4,10.4,0,0,1,38.14,6,9.17,9.17,0,0,1,43.36.76a11.49,11.49,0,0,1,8.22,0,9.53,9.53,0,0,1,3.16,2.09,9.32,9.32,0,0,1,2,3.13A10.43,10.43,0,0,1,57.5,9.87Zm-4.59,0a8.33,8.33,0,0,0-.37-2.58,5.44,5.44,0,0,0-1.07-1.94,4.54,4.54,0,0,0-1.7-1.22,6.39,6.39,0,0,0-4.61,0,4.5,4.5,0,0,0-1.71,1.22,5.44,5.44,0,0,0-1.07,1.94A8.33,8.33,0,0,0,42,9.87a8.37,8.37,0,0,0,.37,2.6,5.44,5.44,0,0,0,1.07,1.94,4.48,4.48,0,0,0,1.71,1.21,6.54,6.54,0,0,0,4.61,0,4.52,4.52,0,0,0,1.7-1.21,5.44,5.44,0,0,0,1.07-1.94A8.37,8.37,0,0,0,52.91,9.87Z"/><path class="cls-1" d="M65.46,13.08v6.46H61V.21H67.8A11.05,11.05,0,0,1,71.31.7,6.57,6.57,0,0,1,73.72,2a5.13,5.13,0,0,1,1.4,2,6.81,6.81,0,0,1,.45,2.5,7.3,7.3,0,0,1-.46,2.65,5.23,5.23,0,0,1-1.42,2.07,6.58,6.58,0,0,1-2.42,1.35,11.19,11.19,0,0,1-3.47.48Zm0-3.38H67.8a3.27,3.27,0,0,0,2.52-.84,3.31,3.31,0,0,0,.77-2.33,3.57,3.57,0,0,0-.2-1.21,2.41,2.41,0,0,0-.6-.93,2.6,2.6,0,0,0-1-.61,4.61,4.61,0,0,0-1.47-.21H65.46Z"/><path class="cls-1" d="M91.68.21V3.66H83.75v4.9h6.61V12H83.75v7.52H79.24V.21Z"/><path class="cls-1" d="M114.42,9.87a10.4,10.4,0,0,1-.72,3.9A9.24,9.24,0,0,1,108.5,19a11.49,11.49,0,0,1-8.22,0,9.2,9.2,0,0,1-5.22-5.23,10.4,10.4,0,0,1-.72-3.9A10.4,10.4,0,0,1,95.06,6,9.17,9.17,0,0,1,100.28.76a11.49,11.49,0,0,1,8.22,0,9.53,9.53,0,0,1,3.16,2.09,9.32,9.32,0,0,1,2,3.13A10.43,10.43,0,0,1,114.42,9.87Zm-4.59,0a8.33,8.33,0,0,0-.37-2.58,5.44,5.44,0,0,0-1.07-1.94,4.54,4.54,0,0,0-1.7-1.22,6.39,6.39,0,0,0-4.61,0,4.5,4.5,0,0,0-1.71,1.22A5.44,5.44,0,0,0,99.3,7.29a8.33,8.33,0,0,0-.37,2.58,8.37,8.37,0,0,0,.37,2.6,5.44,5.44,0,0,0,1.07,1.94,4.48,4.48,0,0,0,1.71,1.21,6.54,6.54,0,0,0,4.61,0,4.52,4.52,0,0,0,1.7-1.21,5.44,5.44,0,0,0,1.07-1.94A8.37,8.37,0,0,0,109.83,9.87Z"/><path class="cls-1" d="M122.38,12.39v7.15H117.9V.21h6.29a13.11,13.11,0,0,1,3.57.43,6.77,6.77,0,0,1,2.42,1.2,4.6,4.6,0,0,1,1.36,1.82A6.08,6.08,0,0,1,132,5.94a6.08,6.08,0,0,1-.25,1.78A5.56,5.56,0,0,1,131,9.27a6.09,6.09,0,0,1-1.22,1.27,6.62,6.62,0,0,1-1.66.91,4.24,4.24,0,0,1,.84.56,3.18,3.18,0,0,1,.68.81l4.12,6.72h-4.06A1.71,1.71,0,0,1,128,18.7l-3.21-5.62a1.51,1.51,0,0,0-.5-.53,1.74,1.74,0,0,0-.8-.16Zm0-3.09h1.81a4.75,4.75,0,0,0,1.56-.23,2.87,2.87,0,0,0,1-.64,2.4,2.4,0,0,0,.6-1,3.74,3.74,0,0,0,.19-1.18,2.49,2.49,0,0,0-.83-2,3.87,3.87,0,0,0-2.57-.72h-1.81Z"/><path class="cls-1" d="M149.2,14.54a.91.91,0,0,1,.32.06.82.82,0,0,1,.3.21l1.78,1.87a7.38,7.38,0,0,1-2.92,2.3,10.23,10.23,0,0,1-4.16.78,9.9,9.9,0,0,1-4-.75,8.59,8.59,0,0,1-3-2.07,9.1,9.1,0,0,1-1.86-3.13,11.43,11.43,0,0,1-.65-3.94,10.28,10.28,0,0,1,.74-4,9.35,9.35,0,0,1,2.07-3.13,9.53,9.53,0,0,1,3.2-2,11,11,0,0,1,4.1-.73,10.06,10.06,0,0,1,3.84.72,9,9,0,0,1,1.54.81,7.59,7.59,0,0,1,1.25,1l-1.51,2a1.88,1.88,0,0,1-.35.34.91.91,0,0,1-.56.16A1.06,1.06,0,0,1,149,5c-.14-.07-.29-.16-.45-.26L148,4.4a3.92,3.92,0,0,0-.68-.33,5.56,5.56,0,0,0-.91-.26,6.31,6.31,0,0,0-1.23-.11,5.76,5.76,0,0,0-2.23.43,4.87,4.87,0,0,0-1.73,1.24,5.7,5.7,0,0,0-1.13,1.94,7.64,7.64,0,0,0-.4,2.56,8,8,0,0,0,.4,2.64,5.94,5.94,0,0,0,1.1,2,4.74,4.74,0,0,0,3.62,1.61,9.41,9.41,0,0,0,1.11-.06,4.46,4.46,0,0,0,.94-.21,3.8,3.8,0,0,0,.82-.38,5.36,5.36,0,0,0,.79-.57,1.79,1.79,0,0,1,.34-.22A.92.92,0,0,1,149.2,14.54Z"/><path class="cls-1" d="M167.42.21V3.66h-7.94V8.17h6.08v3.32h-6.08v4.6h7.94v3.45H155V.21Z"/><path class="cls-2" d="M7.77,12.21l2.87,7a.32.32,0,0,1-.3.44H1.72A1.72,1.72,0,0,1,0,18V2A1.73,1.73,0,0,1,1.72.26H12.15A1.72,1.72,0,0,1,13.86,2V16.76a.32.32,0,0,1-.55.23l-5-5.12A.32.32,0,0,0,7.77,12.21Z"/></g></g></svg>