<svg xmlns="http://www.w3.org/2000/svg" viewBox="0 0 165.03 58.26"><defs><style>.cls-1{fill:#fff;}</style></defs><g id="Layer_2" data-name="Layer 2"><g id="Layer_3" data-name="Layer 3"><path class="cls-1" d="M70.36,26h-6V15.1H53.94V26H48V.28h6V11H64.37V.28h6Z"/><path class="cls-1" d="M101.68,13.11a13.83,13.83,0,0,1-1,5.18A12.56,12.56,0,0,1,98,22.45a12.38,12.38,0,0,1-4.2,2.78,15.41,15.41,0,0,1-10.92,0A12.28,12.28,0,0,1,76,18.29a13.83,13.83,0,0,1-1-5.18,13.76,13.76,0,0,1,1-5.18,12.38,12.38,0,0,1,2.71-4.16A12.69,12.69,0,0,1,82.9,1,15.33,15.33,0,0,1,93.82,1,12.52,12.52,0,0,1,98,3.79,12.36,12.36,0,0,1,100.72,8,13.69,13.69,0,0,1,101.68,13.11Zm-6.09,0a11.09,11.09,0,0,0-.5-3.43A7.13,7.13,0,0,0,93.68,7.1a6,6,0,0,0-2.27-1.62,7.7,7.7,0,0,0-3-.57,7.83,7.83,0,0,0-3.08.57A6,6,0,0,0,83,7.1,7.15,7.15,0,0,0,81.6,9.68a11.1,11.1,0,0,0-.49,3.43,11.08,11.08,0,0,0,.49,3.44A7.15,7.15,0,0,0,83,19.13a6,6,0,0,0,2.27,1.61,8,8,0,0,0,3.08.56,7.88,7.88,0,0,0,3-.56,6,6,0,0,0,2.27-1.61,7.13,7.13,0,0,0,1.41-2.58A11.07,11.07,0,0,0,95.59,13.11Z"/><path class="cls-1" d="M112.25,17.37V26h-6V.28h9A15.16,15.16,0,0,1,120,.92a8.85,8.85,0,0,1,3.21,1.78,6.84,6.84,0,0,1,1.86,2.66,9,9,0,0,1,.6,3.31,9.75,9.75,0,0,1-.62,3.52,7.08,7.08,0,0,1-1.88,2.75A9,9,0,0,1,120,16.73a14.71,14.71,0,0,1-4.61.64Zm0-4.49h3.1a4.37,4.37,0,0,0,3.35-1.11,4.42,4.42,0,0,0,1-3.1,4.85,4.85,0,0,0-.26-1.61,3.32,3.32,0,0,0-.8-1.24A3.71,3.71,0,0,0,117.3,5a6,6,0,0,0-2-.28h-3.1Z"/><path class="cls-1" d="M64.48,32.31v4.58H53.94V43.4h8.78V48H53.94V58H48V32.31Z"/><path class="cls-1" d="M94.67,45.14a13.79,13.79,0,0,1-1,5.18,12.26,12.26,0,0,1-6.9,6.94,15.41,15.41,0,0,1-10.92,0A12.28,12.28,0,0,1,69,50.32,14.46,14.46,0,0,1,69,40a12.33,12.33,0,0,1,2.71-4.16A12.67,12.67,0,0,1,75.89,33a14.38,14.38,0,0,1,5.46-1,14.13,14.13,0,0,1,5.46,1A12.7,12.7,0,0,1,91,35.82,12.36,12.36,0,0,1,93.71,40,13.76,13.76,0,0,1,94.67,45.14Zm-6.09,0a11.09,11.09,0,0,0-.5-3.43,7.46,7.46,0,0,0-1.41-2.58,6.29,6.29,0,0,0-2.27-1.62A7.9,7.9,0,0,0,81.35,37a8,8,0,0,0-3.07.56A6.12,6.12,0,0,0,76,39.13a7.32,7.32,0,0,0-1.42,2.58,12.29,12.29,0,0,0,0,6.87A7.15,7.15,0,0,0,76,51.16a5.91,5.91,0,0,0,2.27,1.62,8,8,0,0,0,3.07.55,7.9,7.9,0,0,0,3.05-.55,6.06,6.06,0,0,0,2.27-1.62,7.28,7.28,0,0,0,1.41-2.58A11.07,11.07,0,0,0,88.58,45.14Z"/><path class="cls-1" d="M105.24,48.49V58H99.29V32.31h8.35a17.1,17.1,0,0,1,4.74.58,8.93,8.93,0,0,1,3.21,1.59,6.1,6.1,0,0,1,1.81,2.41,8.12,8.12,0,0,1,.56,3,8.28,8.28,0,0,1-.33,2.37,7.36,7.36,0,0,1-1,2.05A7.57,7.57,0,0,1,115,46a8.87,8.87,0,0,1-2.21,1.22,5.43,5.43,0,0,1,1.12.74,4.3,4.3,0,0,1,.9,1.07L120.29,58H114.9a2.27,2.27,0,0,1-2.15-1.13l-4.27-7.45a1.73,1.73,0,0,0-.66-.7,2.21,2.21,0,0,0-1.06-.21Zm0-4.11h2.4a6,6,0,0,0,2.07-.31,3.76,3.76,0,0,0,1.4-.85,3.21,3.21,0,0,0,.79-1.28,4.74,4.74,0,0,0,.25-1.57,3.34,3.34,0,0,0-1.1-2.65,5.16,5.16,0,0,0-3.41-.95h-2.4Z"/><path class="cls-1" d="M140.84,51.34a1.26,1.26,0,0,1,.43.08,1.09,1.09,0,0,1,.4.27L144,54.18a9.73,9.73,0,0,1-3.88,3,13.56,13.56,0,0,1-5.52,1,13.28,13.28,0,0,1-5.25-1,11.24,11.24,0,0,1-3.92-2.75A12.06,12.06,0,0,1,123,50.36a15.45,15.45,0,0,1-.86-5.22,14,14,0,0,1,1-5.28,12.15,12.15,0,0,1,7-6.86,14.87,14.87,0,0,1,5.44-1,13.8,13.8,0,0,1,2.72.26,13.07,13.07,0,0,1,2.39.7,11,11,0,0,1,2,1.08,9.44,9.44,0,0,1,1.66,1.38l-2,2.7a2.41,2.41,0,0,1-.46.44,1.14,1.14,0,0,1-.74.21,1.31,1.31,0,0,1-.59-.14,6.57,6.57,0,0,1-.6-.35l-.7-.44a5.4,5.4,0,0,0-.9-.44,7.4,7.4,0,0,0-1.21-.34,7.92,7.92,0,0,0-1.63-.14,7.47,7.47,0,0,0-3,.57,6.42,6.42,0,0,0-2.3,1.64,7.62,7.62,0,0,0-1.5,2.58,10.06,10.06,0,0,0-.54,3.4,10.6,10.6,0,0,0,.54,3.51,7.87,7.87,0,0,0,1.46,2.58,6.31,6.31,0,0,0,2.16,1.59,6.5,6.5,0,0,0,2.64.55,13.21,13.21,0,0,0,1.48-.08,6.73,6.73,0,0,0,1.25-.28,5.1,5.1,0,0,0,1.09-.5,8.08,8.08,0,0,0,1-.76,2.21,2.21,0,0,1,.45-.3A1.34,1.34,0,0,1,140.84,51.34Z"/><path class="cls-1" d="M165,32.31v4.58H154.5v6h8.07v4.41H154.5V53.4H165V58H148.51V32.31Z"/><path class="cls-1" d="M23.13,35.56l8.53,20.95a1,1,0,0,1-.88,1.32H5.11A5.13,5.13,0,0,1,0,52.72V5.11A5.13,5.13,0,0,1,5.11,0H36.16a5.13,5.13,0,0,1,5.11,5.11v44a1,1,0,0,1-1.64.67L24.7,34.53A1,1,0,0,0,23.13,35.56Z"/></g></g></svg>